<?xml version="1.0" encoding="UTF-8"?>
<svg width="498" height="230" xmlns="http://www.w3.org/2000/svg" xmlns:svg="http://www.w3.org/2000/svg" preserveAspectRatio="xMidYMid meet">
 <title>booyah1</title>
 <g>
  <title>Layer 1</title>
  <g stroke="null" transform="translate(0,230) scale(0.10000000149011612,-0.10000000149011612) " fill="#000000" id="svg_1">
   <path stroke="null" d="m3781.647574,1679.085028c-120.391091,-4.558422 -220.923857,-9.623336 -222.785575,-11.649301c-1.861718,-1.519474 -11.79088,-38.999834 -22.340615,-83.064581c-9.929162,-44.064747 -19.858324,-81.545107 -22.340615,-83.064581c-2.482291,-1.519474 -98.050476,-7.090879 -212.23584,-11.649301c-114.185364,-4.558422 -225.888438,-9.623336 -248.229053,-11.649301l-40.337221,-3.038948l31.028632,27.350533c30.408059,26.844042 30.408059,27.350533 15.514316,29.376498c-18.617179,2.025965 -796.194688,-30.389481 -800.538696,-33.428429c-1.241145,-1.012983 3.102863,-15.701232 9.929162,-32.415446c7.446872,-16.207723 13.032025,-30.389481 12.411453,-30.389481c-1.241145,-1.012983 -503.284405,-23.298602 -504.52555,-22.285619c-1.241145,0.506491 5.585154,32.415446 13.652598,70.908789c8.688017,38.493343 14.893743,70.402298 13.652598,71.41528c-1.861718,1.519474 -726.690553,-29.88299 -729.793416,-31.908955c-1.861718,-1.012983 -17.376034,-69.389315 -35.37264,-152.453896c-17.996606,-82.55809 -34.752067,-158.025301 -36.613785,-167.142146l-3.723436,-16.714215l69.504135,3.545439c65.780699,3.545439 68.883562,3.038948 65.780699,-6.077896c-8.688017,-24.311585 -92.465322,-443.686423 -88.741886,-446.218879c3.723436,-3.038948 536.174755,17.220706 572.78854,21.779128c16.755461,2.025965 21.09947,5.571405 25.443478,18.74018l4.964581,16.207723l80.05387,4.051931c43.440084,2.025965 80.674442,3.038948 81.915588,1.519474c1.241145,-1.012983 -28.546341,-59.259488 -66.401272,-130.168277c-37.854931,-70.402298 -67.642417,-129.661786 -67.021844,-131.687751c1.241145,-1.519474 113.564792,59.765979 250.090771,137.259156l248.229053,140.804595l46.542947,3.038948c25.443478,1.519474 85.018451,4.558422 132.181971,6.077896l86.259596,3.545439l-4.344008,-24.311585l-4.964581,-23.805093l45.922375,3.038948c86.880169,5.571405 918.447496,39.506325 921.550359,37.48036c1.241145,-1.519474 -0.620573,-15.701232 -4.344008,-31.402464c-3.723436,-16.207723 -4.964581,-30.389481 -3.723436,-31.908955c5.585154,-4.051931 327.66235,11.649301 332.626931,16.714215c2.482291,2.532457 85.639023,206.141979 183.689499,452.803267c98.050476,246.661287 179.966063,451.283793 181.207209,454.829232c3.723436,7.59737 -17.996606,7.59737 -306.562881,-4.051931zm109.841356,-111.934588c0,-5.064914 -74.468716,-194.99917 -165.07232,-420.894312l-22.340615,-54.701066l-70.74528,0c-62.677836,0 -70.74528,1.012983 -70.74528,8.610353c0,8.103862 89.362459,430.011156 96.188758,455.842215c3.723436,13.168775 15.514316,14.688249 144.593423,15.701232c61.436691,0.506491 88.121314,-0.506491 88.121314,-4.558422zm-1093.448979,-266.41445c-50.886956,-71.921772 -97.429903,-137.259156 -103.015057,-145.869509c-9.308589,-14.688249 -25.443478,-83.064581 -26.064051,-108.89564c0,-8.103862 45.301802,52.168609 121.011663,159.544775l121.011663,172.207059l26.684623,0l26.064051,0l49.645811,-155.492844c27.305196,-85.597038 51.507529,-156.505827 53.989819,-158.531793c1.861718,-1.519474 6.826299,13.675266 11.170307,33.93492c29.787486,145.363017 60.195545,288.193578 62.677836,290.219544c1.861718,1.012983 32.269777,3.545439 68.26299,5.571405l65.780699,3.545439l-19.858324,-90.661952c-11.170307,-50.142644 -19.858324,-91.168443 -18.617179,-92.181426c1.241145,-1.012983 43.440084,0 94.32704,2.025965l93.085895,3.545439l19.858324,91.674934c11.170307,50.142644 20.478897,91.674934 21.09947,92.181426c0.620573,0.506491 31.028632,2.025965 67.642417,4.051931c61.436691,3.038948 65.780699,2.532457 63.298409,-5.571405c-6.205726,-23.298602 -76.951006,-361.128333 -76.951006,-369.232194c0,-7.59737 3.723436,-6.077896 20.478897,6.584388c27.305196,21.272637 42.819512,26.844042 72.606998,26.844042c53.369246,0 80.674442,-24.818076 80.674442,-71.921772c-0.620573,-96.739848 -143.972851,-152.453896 -191.136371,-73.947737l-13.032025,21.272637l-61.436691,-1.519474l-61.436691,-1.519474l17.376034,85.597038c9.929162,46.597204 17.996606,86.10353 17.996606,87.623004c0,5.571405 -176.8632,-1.012983 -183.689499,-6.584388c-3.723436,-3.545439 -14.893743,-44.064747 -24.822905,-90.661952l-17.376034,-84.077564l-59.574973,-3.038948c-32.269777,-2.025965 -77.571579,-4.051931 -100.532766,-5.571405l-41.578366,-2.532457l-6.205726,18.74018c-3.102863,10.636318 -8.067444,25.324568 -9.929162,32.921938l-4.344008,13.675266l-87.500741,-2.532457c-48.404665,-1.519474 -91.224177,-3.545439 -95.568185,-4.558422c-3.723436,-1.012983 -17.376034,-16.714215 -29.166914,-34.441412l-22.340615,-32.921938l-65.780699,-3.545439c-35.993213,-2.025965 -67.021844,-2.532457 -68.26299,-1.012983c-1.861718,1.519474 0,7.59737 3.723436,14.181758c7.446872,11.14281 7.446872,11.14281 -36.613785,8.610353c-30.408059,-2.025965 -44.060657,-1.012983 -44.060657,3.038948c0,3.038948 7.446872,48.62317 16.134888,100.791779c15.514316,90.15546 16.134888,134.220208 1.861718,127.63582c-3.102863,-2.025965 -5.585154,-8.610353 -5.585154,-15.194741c0,-41.532291 -62.677836,-128.648803 -119.770518,-165.622671c-52.748674,-33.93492 -91.84475,-46.090713 -157.004876,-48.62317c-47.784093,-2.025965 -60.816118,-0.506491 -88.121314,9.116844c-29.787486,10.636318 -82.53616,49.636152 -98.671049,72.934754c-5.585154,8.610353 -9.929162,6.584388 -46.542947,-24.311585c-55.851537,-46.090713 -107.979638,-65.843876 -172.519192,-66.350367c-38.475503,0 -52.748674,2.532457 -81.915588,14.181758c-19.858324,8.103862 -45.301802,23.298602 -57.092682,34.947903l-21.720042,20.259654l-16.134888,-20.766145c-39.716648,-51.662118 -106.738493,-86.610021 -183.068927,-96.233357c-22.340615,-2.532457 -93.085895,-6.584388 -157.625449,-8.610353c-112.323647,-3.038948 -116.667655,-3.038948 -113.564792,6.077896c6.205726,16.714215 91.84475,413.296942 89.983032,414.816416c-1.241145,0.506491 -29.787486,0 -63.918981,-2.025965c-34.131495,-2.025965 -63.298409,-3.038948 -63.918981,-2.532457c-1.241145,0.506491 4.344008,30.895972 11.79088,66.856858l14.273171,65.337384l50.266383,3.038948c27.305196,2.025965 104.256202,5.064914 170.657474,6.584388c116.667655,3.545439 122.252809,3.038948 153.28144,-8.103862c40.957794,-14.181758 79.433297,-47.610187 88.741886,-76.986685c9.929162,-28.870007 4.964581,-71.921772 -12.411453,-104.337218l-13.652598,-25.831059l22.961187,-18.233689c13.032025,-9.623336 24.202333,-17.220706 24.822905,-16.714215c0.620573,1.012983 8.067444,11.649301 16.755461,24.311585c22.340615,31.908955 85.018451,79.012651 125.355672,94.207391c78.812724,29.376498 161.969457,20.259654 215.959276,-23.805093c16.134888,-13.168775 29.787486,-26.844042 29.787486,-29.88299c0,-10.129827 12.411453,-4.558422 21.720042,10.129827c15.514316,24.311585 76.951006,69.895806 116.047082,86.10353c76.330434,30.895972 153.28144,32.921938 212.856413,5.571405l34.131495,-15.701232l-16.134888,33.93492c-29.166914,60.778962 -31.028632,57.233523 30.408059,57.233523c28.546341,0 60.816118,1.519474 70.74528,3.038948l18.617179,3.038948l39.096076,-79.519142l39.096076,-79.012651l9.929162,14.181758c6.205726,7.59737 31.028632,44.064747 55.851537,81.038616c32.89035,49.129661 48.404665,67.36335 58.333827,68.882824c7.446872,1.012983 40.957794,2.532457 73.848143,3.038948l59.574973,0.506491l-93.085895,-130.168277z" id="svg_2" fill="#FB0000"/>
   <path stroke="null" d="m1425.953861,1283.008792c-2.482291,-6.584388 -5.585154,-25.324568 -8.067444,-41.532291l-4.344008,-29.376498l21.09947,3.545439c27.305196,4.558422 50.266383,17.727197 60.816118,35.454395c7.446872,12.662284 7.446872,16.207723 0,27.350533c-7.446872,10.636318 -14.273171,13.675266 -37.854931,14.688249c-25.443478,1.519474 -28.546341,0 -31.649204,-10.129827z" id="svg_3" fill="#FB0000"/>
   <path stroke="null" d="m2261.865197,1233.37264c-31.028632,-5.571405 -55.851537,-23.298602 -73.227571,-51.662118c-26.064051,-42.545273 -18.617179,-80.025633 20.478897,-106.869675c31.028632,-21.272637 83.777305,-17.727197 117.288228,8.103862c39.716648,29.88299 53.989819,90.15546 28.546341,118.518976c-25.443478,27.857024 -57.092682,38.999834 -93.085895,31.908955z" id="svg_4" fill="#FB0000"/>
   <path stroke="null" d="m1860.354704,1195.385789c-79.433297,-22.792111 -110.461929,-112.44108 -53.369246,-151.947405c22.961187,-15.194741 52.748674,-16.714215 85.018451,-3.038948c29.166914,12.155792 40.957794,22.792111 56.47211,51.155626c24.822905,44.571239 10.549735,89.142478 -33.510922,104.337218c-25.443478,8.610353 -24.822905,8.610353 -54.610392,-0.506491z" id="svg_5" fill="#FB0000"/>
   <path stroke="null" d="m2871.888095,1117.892612c-12.411453,-17.727197 -22.961187,-32.921938 -22.961187,-34.441412c0,-1.012983 15.514316,-2.025965 34.131495,-2.025965c38.475503,0 37.234358,-3.545439 18.617179,48.116678l-6.826299,20.259654l-22.961187,-31.908955z" id="svg_6" fill="#FB0000"/>
   <path stroke="null" d="m1411.060118,1113.33419c-11.170307,-1.012983 -20.478897,-2.532457 -20.478897,-3.038948c0,-0.506491 -5.585154,-24.818076 -12.411453,-54.194574c-6.826299,-29.376498 -12.411453,-53.688083 -12.411453,-54.194574c0,-4.051931 106.11792,-0.506491 125.355672,3.545439c34.131495,8.103862 60.816118,35.454395 60.816118,62.804927c0,18.74018 -3.102863,24.311585 -19.237752,35.454395c-16.755461,11.649301 -24.202333,13.168775 -60.195545,12.155792c-22.961187,0 -50.886956,-1.519474 -61.436691,-2.532457z" id="svg_7" fill="#FB0000"/>
  </g>
 </g>
</svg>