<svg width="520" height="39" viewBox="0 0 520 39" fill="none" xmlns="http://www.w3.org/2000/svg">
<path d="M0.112 35V32.792L4.528 31.736V4.66399L0.112 3.60799V1.39999H12.592C18.48 1.39999 23.104 2.80799 26.464 5.62399C29.856 8.43999 31.552 12.632 31.552 18.2C31.552 23.224 29.808 27.288 26.32 30.392C22.832 33.464 18.256 35 12.592 35H0.112ZM10.432 31.784H12.352C16.608 31.784 19.856 30.712 22.096 28.568C24.368 26.424 25.504 22.968 25.504 18.2C25.504 13.784 24.336 10.424 22 8.11999C19.696 5.78399 16.48 4.61599 12.352 4.61599H10.432V31.784Z" fill="black"/>
<path d="M35.2214 35V32.792L39.6374 31.736V4.66399L35.2214 3.60799V1.39999H60.2294V11.24H57.9734L55.9094 4.61599L45.5414 4.23199V16.568L55.9094 15.656V19.928L45.5414 19.064V32.168L56.8214 31.784L59.2694 24.632H61.5254L61.1414 35H35.2214Z" fill="black"/>
<path d="M65.9714 35V32.792L70.3874 31.736V4.66399L65.9714 3.60799V1.39999H73.7474L93.7634 25.16V4.66399L89.3474 3.60799V1.39999H101.683V3.60799L97.2674 4.66399V35H94.3874L73.7474 10.664V31.736L78.1634 32.792V35H65.9714Z" fill="black"/>
<path d="M105.44 35V32.792L109.904 31.736V4.66399L105.44 3.60799V1.39999H120.176V3.60799L115.76 4.66399V31.736L120.176 32.792V35H105.44Z" fill="black"/>
<path d="M124.378 35V32.792L128.794 31.736V4.66399L124.378 3.60799V1.39999H139.114V3.60799L134.698 4.66399V31.784H145.978L148.57 24.632H150.778L150.298 35H124.378Z" fill="black"/>
<path d="M154.865 9.07999C154.865 6.42399 155.921 4.35999 158.033 2.88799C160.145 1.41599 162.882 0.679993 166.242 0.679993C169.826 0.679993 173.105 1.04799 176.081 1.78399L175.842 11H173.682L171.281 4.08799C169.937 3.83199 168.578 3.70399 167.202 3.70399C164.994 3.70399 163.249 4.13599 161.969 4.99999C160.721 5.86399 160.098 7.06399 160.098 8.59999C160.098 9.91199 160.657 11.016 161.777 11.912C162.929 12.776 164.914 13.8 167.73 14.984C169.234 15.592 170.466 16.168 171.426 16.712C172.418 17.224 173.474 17.912 174.594 18.776C175.714 19.64 176.546 20.68 177.09 21.896C177.666 23.112 177.954 24.472 177.954 25.976C177.954 29.176 176.77 31.64 174.402 33.368C172.194 34.968 169.426 35.752 166.098 35.72C165.202 35.72 163.713 35.64 161.633 35.48C159.585 35.32 157.362 34.888 154.962 34.184V24.728H157.169L159.618 31.928C160.962 32.344 162.53 32.552 164.322 32.552C166.818 32.552 168.834 32.12 170.37 31.256C171.906 30.36 172.674 28.968 172.674 27.08C172.674 25.64 171.985 24.392 170.609 23.336C169.233 22.28 167.217 21.176 164.561 20.024C160.913 18.456 158.385 16.936 156.977 15.464C155.569 13.992 154.865 11.864 154.865 9.07999Z" fill="black"/>
<path d="M198.731 0.679993C201.323 0.679993 203.611 1.11199 205.595 1.97599C207.579 2.83999 209.259 4.03999 210.635 5.57599C212.011 7.11199 213.051 8.95199 213.755 11.096C214.459 13.24 214.811 15.592 214.811 18.152C214.811 20.744 214.459 23.112 213.755 25.256C213.083 27.4 212.059 29.256 210.683 30.824C209.339 32.36 207.659 33.56 205.643 34.424C203.659 35.288 201.355 35.72 198.731 35.72C195.947 35.72 193.531 35.256 191.483 34.328C189.467 33.4 187.803 32.152 186.491 30.584C185.179 28.984 184.203 27.112 183.563 24.968C182.955 22.824 182.651 20.52 182.651 18.056C182.651 15.656 182.971 13.416 183.611 11.336C184.251 9.22399 185.227 7.38399 186.539 5.81599C187.851 4.21599 189.515 2.96799 191.531 2.07199C193.579 1.14399 195.979 0.679993 198.731 0.679993ZM198.731 3.51199C195.467 3.51199 192.987 4.88799 191.291 7.63999C189.627 10.36 188.795 13.88 188.795 18.2C188.795 22.776 189.675 26.376 191.435 29C193.227 31.592 195.659 32.888 198.731 32.888C201.803 32.888 204.219 31.592 205.979 29C207.771 26.376 208.667 22.776 208.667 18.2C208.667 13.88 207.819 10.36 206.123 7.63999C204.459 4.88799 201.995 3.51199 198.731 3.51199Z" fill="black"/>
<path d="M218.737 35V32.792L223.153 31.736V4.66399L218.737 3.60799V1.39999H226.513L246.529 25.16V4.66399L242.113 3.60799V1.39999H254.449V3.60799L250.033 4.66399V35H247.153L226.513 10.664V31.736L230.929 32.792V35H218.737Z" fill="black"/>
<path d="M279.635 19.256C280.115 19.32 280.595 19.368 281.075 19.4C281.555 19.432 282.019 19.448 282.467 19.448C283.555 19.448 284.563 19.288 285.491 18.968C286.451 18.648 287.267 18.168 287.939 17.528C288.643 16.888 289.187 16.104 289.571 15.176C289.955 14.248 290.147 13.16 290.147 11.912C290.147 9.41599 289.395 7.54399 287.891 6.29599C286.419 5.04799 284.483 4.42399 282.083 4.42399H279.635V19.256ZM269.315 35V32.792L273.731 31.736V4.66399L269.315 3.60799V1.39999H282.083C291.491 1.39999 296.195 4.90399 296.195 11.912C296.195 15.464 294.963 18.12 292.499 19.88C290.067 21.608 286.851 22.472 282.851 22.472C281.731 22.472 280.659 22.392 279.635 22.232V31.736L285.491 32.792V35H269.315Z" fill="black"/>
<path d="M299.362 35V32.792L303.778 31.736V4.66399L299.362 3.60799V1.39999H312.946C314.674 1.39999 316.258 1.54399 317.698 1.83199C319.138 2.08799 320.53 2.55199 321.874 3.22399C323.25 3.86399 324.322 4.83999 325.09 6.15199C325.89 7.43199 326.29 8.98399 326.29 10.808C326.29 15.064 324.082 17.944 319.666 19.448L326.338 31.784L330.562 32.84V35H321.826L313.906 20.168H309.682V31.736L314.098 32.792V35H299.362ZM309.682 17.288H312.466C314.802 17.288 316.674 16.712 318.082 15.56C319.522 14.408 320.242 12.792 320.242 10.712C320.242 8.66399 319.538 7.11199 318.13 6.05599C316.722 4.96799 314.834 4.42399 312.466 4.42399H309.682V17.288Z" fill="black"/>
<path d="M348.731 0.679993C351.323 0.679993 353.611 1.11199 355.595 1.97599C357.579 2.83999 359.259 4.03999 360.635 5.57599C362.011 7.11199 363.051 8.95199 363.755 11.096C364.459 13.24 364.811 15.592 364.811 18.152C364.811 20.744 364.459 23.112 363.755 25.256C363.083 27.4 362.059 29.256 360.683 30.824C359.339 32.36 357.659 33.56 355.643 34.424C353.659 35.288 351.355 35.72 348.731 35.72C345.947 35.72 343.531 35.256 341.483 34.328C339.467 33.4 337.803 32.152 336.491 30.584C335.179 28.984 334.203 27.112 333.563 24.968C332.955 22.824 332.651 20.52 332.651 18.056C332.651 15.656 332.971 13.416 333.611 11.336C334.251 9.22399 335.227 7.38399 336.539 5.81599C337.851 4.21599 339.515 2.96799 341.531 2.07199C343.579 1.14399 345.979 0.679993 348.731 0.679993ZM348.731 3.51199C345.467 3.51199 342.987 4.88799 341.291 7.63999C339.627 10.36 338.795 13.88 338.795 18.2C338.795 22.776 339.675 26.376 341.435 29C343.227 31.592 345.659 32.888 348.731 32.888C351.803 32.888 354.219 31.592 355.979 29C357.771 26.376 358.667 22.776 358.667 18.2C358.667 13.88 357.819 10.36 356.123 7.63999C354.459 4.88799 351.995 3.51199 348.731 3.51199Z" fill="black"/>
<path d="M387.058 0.679993C390.77 0.679993 393.89 1.23999 396.418 2.35999V11.432H394.21L392.002 4.32799C390.754 4.03999 389.314 3.89599 387.682 3.89599C379.714 3.89599 375.73 8.66399 375.73 18.2C375.73 27.736 379.394 32.504 386.722 32.504C387.81 32.504 388.786 32.472 389.65 32.408C390.514 32.344 391.298 32.248 392.002 32.12L394.786 24.536H396.994L396.658 33.608C396.21 33.864 395.57 34.12 394.738 34.376C393.906 34.632 392.994 34.856 392.002 35.048C391.042 35.24 390.034 35.4 388.978 35.528C387.954 35.656 387.01 35.72 386.146 35.72C380.738 35.72 376.642 34.216 373.858 31.208C371.074 28.2 369.682 23.864 369.682 18.2C369.682 12.536 371.122 8.19999 374.002 5.19199C376.914 2.18399 381.266 0.679993 387.058 0.679993Z" fill="black"/>
<path d="M417.966 0.679993C420.558 0.679993 422.845 1.11199 424.829 1.97599C426.813 2.83999 428.494 4.03999 429.87 5.57599C431.246 7.11199 432.286 8.95199 432.99 11.096C433.694 13.24 434.046 15.592 434.046 18.152C434.046 20.744 433.694 23.112 432.99 25.256C432.318 27.4 431.294 29.256 429.918 30.824C428.574 32.36 426.894 33.56 424.878 34.424C422.894 35.288 420.59 35.72 417.966 35.72C415.182 35.72 412.765 35.256 410.717 34.328C408.701 33.4 407.037 32.152 405.725 30.584C404.413 28.984 403.437 27.112 402.797 24.968C402.189 22.824 401.885 20.52 401.885 18.056C401.885 15.656 402.205 13.416 402.845 11.336C403.485 9.22399 404.461 7.38399 405.773 5.81599C407.085 4.21599 408.75 2.96799 410.766 2.07199C412.814 1.14399 415.214 0.679993 417.966 0.679993ZM417.966 3.51199C414.702 3.51199 412.222 4.88799 410.526 7.63999C408.862 10.36 408.03 13.88 408.03 18.2C408.03 22.776 408.909 26.376 410.669 29C412.461 31.592 414.894 32.888 417.966 32.888C421.038 32.888 423.454 31.592 425.214 29C427.006 26.376 427.901 22.776 427.901 18.2C427.901 13.88 427.054 10.36 425.358 7.63999C423.694 4.88799 421.23 3.51199 417.966 3.51199Z" fill="black"/>
<path d="M448.291 19.256C448.771 19.32 449.251 19.368 449.731 19.4C450.211 19.432 450.675 19.448 451.123 19.448C452.211 19.448 453.219 19.288 454.147 18.968C455.107 18.648 455.923 18.168 456.595 17.528C457.299 16.888 457.843 16.104 458.227 15.176C458.611 14.248 458.803 13.16 458.803 11.912C458.803 9.41599 458.051 7.54399 456.547 6.29599C455.075 5.04799 453.139 4.42399 450.739 4.42399H448.291V19.256ZM437.971 35V32.792L442.387 31.736V4.66399L437.971 3.60799V1.39999H450.739C460.147 1.39999 464.851 4.90399 464.851 11.912C464.851 15.464 463.619 18.12 461.155 19.88C458.723 21.608 455.507 22.472 451.507 22.472C450.387 22.472 449.315 22.392 448.291 22.232V31.736L454.147 32.792V35H437.971Z" fill="black"/>
<path fill-rule="evenodd" clip-rule="evenodd" d="M488.473 0H507.564L507.628 0.00408077C511.963 0.281459 515 0.828548 516.982 2.08351C518.053 2.76198 518.807 3.63606 519.29 4.69881C519.749 5.71165 519.92 6.80304 519.995 7.85803L520 7.92893V31.2972L519.914 31.5816C519.117 34.2021 517.819 36.1316 515.466 37.1665C513.353 38.0954 510.649 38.1631 507.449 38H488.508C484.272 38.0337 481.11 37.7929 478.805 36.8685C477.597 36.3838 476.593 35.7022 475.788 34.7694C474.996 33.8499 474.475 32.7768 474.098 31.6186L474 31.3171V7.80697L474.037 7.6175C474.292 6.31031 474.722 5.09653 475.467 4.0419C476.224 2.96903 477.23 2.17152 478.465 1.58981C480.814 0.48378 484.11 0.117558 488.446 0.000725508L488.473 0ZM488.527 4C484.182 4.11836 481.673 4.50054 480.169 5.20872C479.477 5.53485 479.043 5.91196 478.734 6.34963C478.433 6.77588 478.182 7.35665 478 8.20217V30.6667C478.243 31.3357 478.514 31.805 478.818 32.1573C479.152 32.5443 479.6 32.8776 480.294 33.1559C481.793 33.7569 484.234 34.0342 488.484 34.0001L488.492 34H507.552L507.603 34.0027C510.861 34.1709 512.697 34.0145 513.856 33.5048C514.74 33.1159 515.427 32.4289 516 30.6916V8.07357C515.937 7.25357 515.817 6.72632 515.647 6.35254C515.496 6.01839 515.273 5.73616 514.842 5.4628C513.822 4.81724 511.761 4.28064 507.436 4H488.527ZM489.5 9.15157L508.974 19.6377L489.5 28.6258V9.15157ZM493.5 15.8484V22.3742L500.026 19.3623L493.5 15.8484Z" fill="black"/>
</svg>
